<?xml version="1.0" encoding="utf-8"?>
<!-- Generator: Adobe Illustrator 24.1.2, SVG Export Plug-In . SVG Version: 6.00 Build 0)  -->
<svg version="1.1" id="Layer_1" xmlns="http://www.w3.org/2000/svg" xmlns:xlink="http://www.w3.org/1999/xlink" x="0px" y="0px"
	 viewBox="0 0 595.3 841.9" style="enable-background:new 0 0 595.3 841.9;" xml:space="preserve">
<style type="text/css">
	.st0{fill-rule:evenodd;clip-rule:evenodd;fill:#00973A;}
	.st1{fill-rule:evenodd;clip-rule:evenodd;fill:#FFFFFF;}
</style>
<g>
	<path class="st0" d="M352,361L194.5,554c98.2-6.5,194.5-47.2,269.5-122.2c84.3-84.3,125.3-195.4,123-305.9
		c-110.4-2.2-221.6,38.8-305.9,123c-75,75-115.8,171.4-122.2,269.5L352,361L352,361z M143,441.2c9.3-38.2,23.7-75,42.8-109.3
		c0,0-77.4-13.2-140.9,101.5C44.9,433.5,66.2,422,143,441.2L143,441.2z M381.1,527.3c-34.3,19.1-71.1,33.5-109.3,42.8
		c19.3,76.8,7.7,98,7.7,98C394.3,604.6,381.1,527.3,381.1,527.3L381.1,527.3z"/>
	<path class="st1" d="M487.2,225.8c13.1,13.1,13.1,34.3,0,47.4c-13.1,13.1-34.3,13.1-47.4,0c-13.1-13.1-13.1-34.3,0-47.4
		C452.9,212.7,474.2,212.7,487.2,225.8L487.2,225.8z"/>
	<path class="st0" d="M4.7,719.1c153.9-41.9,162.6-117.3,159.9-146.1l-82.6,68.9l68.9-82.6C122,556.4,46.5,565.2,4.7,719.1
		L4.7,719.1z"/>
</g>
</svg>
