<?xml version="1.0" encoding="utf-8"?>
<!-- Generator: Adobe Illustrator 24.1.2, SVG Export Plug-In . SVG Version: 6.00 Build 0)  -->
<svg version="1.1" id="Layer_1" xmlns="http://www.w3.org/2000/svg" xmlns:xlink="http://www.w3.org/1999/xlink" x="0px" y="0px"
	 viewBox="0 0 595.3 841.9" style="enable-background:new 0 0 595.3 841.9;" xml:space="preserve">
<style type="text/css">
	.st0{fill-rule:evenodd;clip-rule:evenodd;fill:#00973A;}
	.st1{fill-rule:evenodd;clip-rule:evenodd;fill:#FFFFFF;}
</style>
<g>
	<path class="st0" d="M353.7,359.5l-157.5,193c98.2-6.5,194.5-47.2,269.5-122.2c84.3-84.3,125.3-195.4,123-305.9
		c-110.4-2.2-221.6,38.8-305.9,123c-75,75-115.8,171.4-122.2,269.5L353.7,359.5L353.7,359.5z M144.7,439.7
		c9.3-38.2,23.7-75,42.8-109.3c0,0-77.4-13.2-140.9,101.5C46.7,432,67.9,420.4,144.7,439.7L144.7,439.7z M382.8,525.7
		c-34.3,19.1-71.1,33.5-109.3,42.8c19.3,76.8,7.7,98,7.7,98C396,603.1,382.8,525.7,382.8,525.7L382.8,525.7z"/>
	<path class="st1" d="M489,224.3c13.1,13.1,13.1,34.3,0,47.4c-13.1,13.1-34.3,13.1-47.4,0c-13.1-13.1-13.1-34.3,0-47.4
		C454.6,211.2,475.9,211.2,489,224.3L489,224.3z"/>
	<path class="st0" d="M6.4,717.5C160.3,675.6,169,600.2,166.3,571.4l-82.6,68.9l68.9-82.6C123.7,554.9,48.3,563.6,6.4,717.5
		L6.4,717.5z"/>
</g>
</svg>
