<?xml version="1.0" encoding="utf-8"?>
<!-- Generator: Adobe Illustrator 24.1.2, SVG Export Plug-In . SVG Version: 6.00 Build 0)  -->
<svg version="1.1" id="Layer_1" xmlns="http://www.w3.org/2000/svg" xmlns:xlink="http://www.w3.org/1999/xlink" x="0px" y="0px"
	 viewBox="0 0 524.4 102" style="enable-background:new 0 0 524.4 102;" xml:space="preserve">
<style type="text/css">
	.st0{fill:#010101;}
	.st1{font-family:'Loew-Light';}
	.st2{font-size:61px;}
	.st3{font-family:'Loew-ExtraBold';}
	.st4{fill-rule:evenodd;clip-rule:evenodd;fill:#00983A;}
	.st5{fill-rule:evenodd;clip-rule:evenodd;fill:#FFFFFF;}
</style>
<g>
	<text transform="matrix(1 0 0 1 1.4311 73.7645)"><tspan x="0" y="0" class="st0 st1 st2">SPACE       </tspan><tspan x="336.2" y="0" class="st0 st3 st2">FARM</tspan></text>
	<g>
		<path class="st4" d="M285.6,40.6l-26.7,32.7c16.6-1.1,33-8,45.7-20.7c14.3-14.3,21.2-33.1,20.9-51.9c-18.7-0.4-37.6,6.6-51.9,20.9
			c-12.7,12.7-19.6,29.1-20.7,45.7L285.6,40.6L285.6,40.6z M250.1,54.2c1.6-6.5,4-12.7,7.3-18.5c0,0-13.1-2.2-23.9,17.2
			C233.5,52.9,237.1,50.9,250.1,54.2L250.1,54.2z M290.5,68.8c-5.8,3.2-12.1,5.7-18.5,7.3c3.3,13,1.3,16.6,1.3,16.6
			C292.8,81.9,290.5,68.8,290.5,68.8L290.5,68.8z"/>
		<path class="st5" d="M308.5,17.7c2.2,2.2,2.2,5.8,0,8c-2.2,2.2-5.8,2.2-8,0c-2.2-2.2-2.2-5.8,0-8
			C302.7,15.5,306.3,15.5,308.5,17.7L308.5,17.7z"/>
		<path class="st4" d="M226.7,101.3c26.1-7.1,27.6-19.9,27.1-24.8l-14,11.7l11.7-14C246.6,73.7,233.8,75.2,226.7,101.3L226.7,101.3z
			"/>
	</g>
</g>
</svg>
