<?xml version="1.0" encoding="utf-8"?>
<!-- Generator: Adobe Illustrator 24.1.2, SVG Export Plug-In . SVG Version: 6.00 Build 0)  -->
<svg version="1.1"
	 id="svg15" sodipodi:docname="flax_logo.svg" xmlns:cc="http://creativecommons.org/ns#" xmlns:dc="http://purl.org/dc/elements/1.1/" xmlns:inkscape="http://www.inkscape.org/namespaces/inkscape" xmlns:rdf="http://www.w3.org/1999/02/22-rdf-syntax-ns#" xmlns:sodipodi="http://sodipodi.sourceforge.net/DTD/sodipodi-0.dtd" xmlns:svg="http://www.w3.org/2000/svg"
	 xmlns="http://www.w3.org/2000/svg" xmlns:xlink="http://www.w3.org/1999/xlink" x="0px" y="0px" viewBox="0 0 150 58"
	 style="enable-background:new 0 0 150 58;" xml:space="preserve">
<style type="text/css">
	.st0{font-family:'Loew-Light';}
	.st1{font-size:25px;}
	.st2{font-family:'Loew-ExtraBold';}
	.st3{fill-rule:evenodd;clip-rule:evenodd;fill:#00973A;}
	.st4{fill-rule:evenodd;clip-rule:evenodd;fill:#FFFFFF;}
</style>
<sodipodi:namedview  bordercolor="#666666" borderopacity="1" gridtolerance="10" guidetolerance="10" id="namedview17" inkscape:pageopacity="0" inkscape:pageshadow="2" objecttolerance="10" pagecolor="#ffffff" showgrid="false">
	</sodipodi:namedview>
<text transform="matrix(1 0 0 1 5.5941 26.5355)"><tspan x="0" y="0" class="st0 st1">SPACE</tspan><tspan x="91.9" y="0" class="st0 st1">       </tspan><tspan x="0" y="23" class="st2 st1">FARM</tspan></text>
<g>
	<path class="st3" d="M125.3,23.7l-13.5,16.5c8.4-0.6,16.6-4,23.1-10.5c7.2-7.2,10.7-16.7,10.5-26.2c-9.4-0.2-19,3.3-26.2,10.5
		c-6.4,6.4-9.9,14.7-10.5,23.1L125.3,23.7L125.3,23.7z M107.4,30.5c0.8-3.3,2-6.4,3.7-9.3c0,0-6.6-1.1-12.1,8.7
		C99,29.9,100.8,28.9,107.4,30.5L107.4,30.5z M127.8,37.9c-2.9,1.6-6.1,2.9-9.3,3.7c1.6,6.6,0.7,8.4,0.7,8.4
		C128.9,44.5,127.8,37.9,127.8,37.9L127.8,37.9z"/>
	<path class="st4" d="M136.9,12.1c1.1,1.1,1.1,2.9,0,4.1c-1.1,1.1-2.9,1.1-4.1,0c-1.1-1.1-1.1-2.9,0-4.1
		C133.9,11,135.7,11,136.9,12.1L136.9,12.1z"/>
	<path class="st3" d="M95.6,54.3c13.2-3.6,13.9-10,13.7-12.5l-7.1,5.9l5.9-7.1C105.6,40.4,99.2,41.1,95.6,54.3L95.6,54.3z"/>
</g>
</svg>
